{
  "accessors": [
    {
      "bufferView": 2,
      "componentType": 5126,
      "count": 24,
      "max": [
        0.01968500018119812,
        0.01968500018119812,
        0.01968500018119812
      ],
      "min": [
        -0.01968500018119812,
        -0.01968500018119812,
        -0.01968500018119812
      ],
      "type": "VEC3"
    },
    {
      "bufferView": 2,
      "byteOffset": 288,
      "componentType": 5126,
      "count": 24,
      "max": [
        1,
        1,
        1
      ],
      "min": [
        -1,
        -1,
        -1
      ],
      "type": "VEC3"
    },
    {
      "bufferView": 1,
      "componentType": 5126,
      "count": 24,
      "max": [
        0.875,
        1
      ],
      "min": [
        0.125,
        0
      ],
      "type": "VEC2"
    },
    {
      "bufferView": 0,
      "componentType": 5125,
      "count": 36,
      "max": [
        23
      ],
      "min": [
        0
      ],
      "type": "SCALAR"
    },
    {
      "bufferView": 2,
      "byteOffset": 576,
      "componentType": 5126,
      "count": 92,
      "max": [
        0.015836000442504883,
        0.0052399998530745506,
        0.027313999831676483
      ],
      "min": [
        -0.015568000264465809,
        -0.0052399998530745506,
        0.019701000303030014
      ],
      "type": "VEC3"
    },
    {
      "bufferView": 2,
      "byteOffset": 1680,
      "componentType": 5126,
      "count": 92,
      "max": [
        1,
        1,
        1
      ],
      "min": [
        -1,
        -1,
        0
      ],
      "type": "VEC3"
    },
    {
      "bufferView": 1,
      "byteOffset": 192,
      "componentType": 5126,
      "count": 92,
      "max": [
        0.875,
        0.75
      ],
      "min": [
        0.125,
        0
      ],
      "type": "VEC2"
    },
    {
      "bufferView": 0,
      "byteOffset": 144,
      "componentType": 5125,
      "count": 150,
      "max": [
        91
      ],
      "min": [
        0
      ],
      "type": "SCALAR"
    },
    {
      "bufferView": 2,
      "byteOffset": 2784,
      "componentType": 5126,
      "count": 16,
      "max": [
        0.01523400004953146,
        0.020609000697731972,
        0.01523400004953146
      ],
      "min": [
        -0.01523400004953146,
        0.019641000777482986,
        -0.01523400004953146
      ],
      "type": "VEC3"
    },
    {
      "bufferView": 2,
      "byteOffset": 2976,
      "componentType": 5126,
      "count": 16,
      "max": [
        1,
        0,
        1
      ],
      "min": [
        -1,
        0,
        -1
      ],
      "type": "VEC3"
    },
    {
      "bufferView": 1,
      "byteOffset": 928,
      "componentType": 5126,
      "count": 16,
      "max": [
        0.875,
        1
      ],
      "min": [
        0.125,
        0
      ],
      "type": "VEC2"
    },
    {
      "bufferView": 0,
      "byteOffset": 744,
      "componentType": 5125,
      "count": 24,
      "max": [
        15
      ],
      "min": [
        0
      ],
      "type": "SCALAR"
    },
    {
      "bufferView": 2,
      "byteOffset": 3168,
      "componentType": 5126,
      "count": 4,
      "max": [
        0.01523400004953146,
        0.020609000697731972,
        0.01523400004953146
      ],
      "min": [
        -0.01523400004953146,
        0.020609000697731972,
        -0.01523400004953146
      ],
      "type": "VEC3"
    },
    {
      "bufferView": 2,
      "byteOffset": 3216,
      "componentType": 5126,
      "count": 4,
      "max": [
        0,
        1,
        0
      ],
      "min": [
        0,
        1,
        0
      ],
      "type": "VEC3"
    },
    {
      "bufferView": 1,
      "byteOffset": 1056,
      "componentType": 5126,
      "count": 4,
      "max": [
        0.99999970197677612,
        0.99999970197677612
      ],
      "min": [
        2.9802322387695312e-07,
        2.9802322387695312e-07
      ],
      "type": "VEC2"
    },
    {
      "bufferView": 0,
      "byteOffset": 840,
      "componentType": 5125,
      "count": 6,
      "max": [
        3
      ],
      "min": [
        0
      ],
      "type": "SCALAR"
    },
    {
      "bufferView": 2,
      "byteOffset": 3264,
      "componentType": 5126,
      "count": 36,
      "max": [
        -0.0054680001921951771,
        0.0017679999582469463,
        0.028031000867486
      ],
      "min": [
        -0.0090049998834729195,
        -0.0017679999582469463,
        0.027313999831676483
      ],
      "type": "VEC3"
    },
    {
      "bufferView": 2,
      "byteOffset": 3696,
      "componentType": 5126,
      "count": 36,
      "max": [
        1,
        1,
        1
      ],
      "min": [
        -1,
        -1,
        0
      ],
      "type": "VEC3"
    },
    {
      "bufferView": 1,
      "byteOffset": 1088,
      "componentType": 5126,
      "count": 36,
      "max": [
        0.875,
        0.55069702863693237
      ],
      "min": [
        0.125,
        0.19930300116539001
      ],
      "type": "VEC2"
    },
    {
      "bufferView": 0,
      "byteOffset": 864,
      "componentType": 5125,
      "count": 54,
      "max": [
        35
      ],
      "min": [
        0
      ],
      "type": "SCALAR"
    },
    {
      "bufferView": 2,
      "byteOffset": 4128,
      "componentType": 5126,
      "count": 32,
      "max": [
        0.0098583018407225609,
        0.0048605366609990597,
        0.028031000867486
      ],
      "min": [
        -0.0090049998834729195,
        -0.0017679999582469463,
        0.023446829989552498
      ],
      "type": "VEC3"
    },
    {
      "bufferView": 2,
      "byteOffset": 4512,
      "componentType": 5126,
      "count": 32,
      "max": [
        0,
        0,
        0
      ],
      "min": [
        -1,
        -0.66864454746246338,
        -1
      ],
      "type": "VEC3"
    },
    {
      "bufferView": 1,
      "byteOffset": 1376,
      "componentType": 5126,
      "count": 32,
      "max": [
        1,
        1
      ],
      "min": [
        0,
        0
      ],
      "type": "VEC2"
    },
    {
      "bufferView": 0,
      "byteOffset": 1080,
      "componentType": 5125,
      "count": 60,
      "max": [
        31
      ],
      "min": [
        0
      ],
      "type": "SCALAR"
    },
    {
      "bufferView": 2,
      "byteOffset": 4896,
      "componentType": 5126,
      "count": 32,
      "max": [
        0.0088679995387792587,
        0.0017679999582469463,
        0.028031000867486
      ],
      "min": [
        0.0053320000879466534,
        -0.0017679999582469463,
        0.027313999831676483
      ],
      "type": "VEC3"
    },
    {
      "bufferView": 2,
      "byteOffset": 5280,
      "componentType": 5126,
      "count": 32,
      "max": [
        1,
        1,
        1
      ],
      "min": [
        -1,
        -1,
        0
      ],
      "type": "VEC3"
    },
    {
      "bufferView": 1,
      "byteOffset": 1632,
      "componentType": 5126,
      "count": 32,
      "max": [
        0.875,
        0.55069702863693237
      ],
      "min": [
        0.125,
        0.19930300116539001
      ],
      "type": "VEC2"
    },
    {
      "bufferView": 0,
      "byteOffset": 1320,
      "componentType": 5125,
      "count": 48,
      "max": [
        31
      ],
      "min": [
        0
      ],
      "type": "SCALAR"
    },
    {
      "bufferView": 2,
      "byteOffset": 5664,
      "componentType": 5126,
      "count": 4,
      "max": [
        -0.0045389207080006599,
        0.0048605441115796566,
        0.025130536407232285
      ],
      "min": [
        -0.0099586267024278641,
        0.0029881126247346401,
        0.023446839302778244
      ],
      "type": "VEC3"
    },
    {
      "bufferView": 2,
      "byteOffset": 5712,
      "componentType": 5126,
      "count": 4,
      "max": [
        0,
        -0.66863751411437988,
        -0.74358856678009033
      ],
      "min": [
        0,
        -0.66863751411437988,
        -0.74358856678009033
      ],
      "type": "VEC3"
    },
    {
      "bufferView": 1,
      "byteOffset": 1888,
      "componentType": 5126,
      "count": 4,
      "max": [
        1,
        1
      ],
      "min": [
        0,
        0
      ],
      "type": "VEC2"
    },
    {
      "bufferView": 0,
      "byteOffset": 1512,
      "componentType": 5125,
      "count": 6,
      "max": [
        3
      ],
      "min": [
        0
      ],
      "type": "SCALAR"
    }
  ],
  "asset": {
    "extras": {
      "author": "Scott Roantree (https://sketchfab.com/sroantree)",
      "license": "CC-BY-4.0 (http://creativecommons.org/licenses/by/4.0/)",
      "source": "https://sketchfab.com/3d-models/red-dwarf-holly-hop-drive-864753f4137c411db49e119c93d861eb",
      "title": "Red Dwarf - Holly Hop Drive"
    },
    "generator": "Sketchfab-8.20.0",
    "version": "2.0"
  },
  "bufferViews": [
    {
      "buffer": 0,
      "byteLength": 1536,
      "byteOffset": 0,
      "name": "floatBufferViews",
      "target": 34963
    },
    {
      "buffer": 0,
      "byteLength": 1920,
      "byteOffset": 1536,
      "byteStride": 8,
      "name": "floatBufferViews",
      "target": 34962
    },
    {
      "buffer": 0,
      "byteLength": 5760,
      "byteOffset": 3456,
      "byteStride": 12,
      "name": "floatBufferViews",
      "target": 34962
    }
  ],
  "buffers": [
    {
      "byteLength": 9216,
      "uri": "scene.bin"
    }
  ],
  "images": [
    {
      "uri": "textures/Display_baseColor.png"
    },
    {
      "uri": "textures/Stop_baseColor.png"
    },
    {
      "uri": "textures/Start_baseColor.png"
    }
  ],
  "materials": [
    {
      "doubleSided": true,
      "emissiveFactor": [
        0,
        0,
        0
      ],
      "name": "material",
      "pbrMetallicRoughness": {
        "baseColorFactor": [
          0.198069,
          0.016068099999999998,
          0.0066805399999999996,
          1
        ],
        "metallicFactor": 0,
        "roughnessFactor": 0.98790651490647607
      }
    },
    {
      "doubleSided": true,
      "name": "Console",
      "pbrMetallicRoughness": {
        "baseColorFactor": [
          0.31340099999999999,
          0.31340099999999999,
          0.31340099999999999,
          1
        ],
        "metallicFactor": 0.34317835365853661,
        "roughnessFactor": 0.46169969512195119
      }
    },
    {
      "doubleSided": true,
      "emissiveFactor": [
        0,
        0,
        0
      ],
      "name": "Border",
      "pbrMetallicRoughness": {
        "baseColorFactor": [
          0.0221739,
          0.0152085,
          0.0043914399999999999,
          1
        ],
        "metallicFactor": 0,
        "roughnessFactor": 0.99644278428292965
      }
    },
    {
      "doubleSided": true,
      "emissiveFactor": [
        0,
        0,
        0
      ],
      "name": "Display",
      "pbrMetallicRoughness": {
        "baseColorFactor": [
          1,
          1,
          1,
          1
        ],
        "baseColorTexture": {
          "index": 0,
          "texCoord": 0
        },
        "metallicFactor": 0,
        "roughnessFactor": 0.82111456180001685
      }
    },
    {
      "doubleSided": true,
      "emissiveFactor": [
        0,
        0,
        0
      ],
      "name": "GreenButton",
      "pbrMetallicRoughness": {
        "baseColorFactor": [
          0.00697636,
          0.49328499999999997,
          0.047604,
          1
        ],
        "metallicFactor": 0,
        "roughnessFactor": 0.92001190962540103
      }
    },
    {
      "doubleSided": true,
      "emissiveFactor": [
        0,
        0,
        0
      ],
      "name": "Stop",
      "pbrMetallicRoughness": {
        "baseColorFactor": [
          1,
          1,
          1,
          1
        ],
        "baseColorTexture": {
          "index": 1,
          "texCoord": 0
        },
        "metallicFactor": 0,
        "roughnessFactor": 1
      }
    },
    {
      "doubleSided": true,
      "emissiveFactor": [
        0,
        0,
        0
      ],
      "name": "RedButton",
      "pbrMetallicRoughness": {
        "baseColorFactor": [
          0.80000000000000004,
          0.071861900000000006,
          0.034517100000000002,
          1
        ],
        "metallicFactor": 0,
        "roughnessFactor": 0.94991928515732682
      }
    },
    {
      "doubleSided": true,
      "emissiveFactor": [
        0,
        0,
        0
      ],
      "name": "Start",
      "pbrMetallicRoughness": {
        "baseColorFactor": [
          1,
          1,
          1,
          1
        ],
        "baseColorTexture": {
          "index": 2,
          "texCoord": 0
        },
        "metallicFactor": 0,
        "roughnessFactor": 0.82111456180001685
      }
    }
  ],
  "meshes": [
    {
      "name": "Holly Hop Drive_Box_0",
      "primitives": [
        {
          "attributes": {
            "NORMAL": 1,
            "POSITION": 0,
            "TEXCOORD_0": 2
          },
          "indices": 3,
          "material": 0,
          "mode": 4
        }
      ]
    },
    {
      "name": "Holly Hop Drive_Console_0",
      "primitives": [
        {
          "attributes": {
            "NORMAL": 5,
            "POSITION": 4,
            "TEXCOORD_0": 6
          },
          "indices": 7,
          "material": 1,
          "mode": 4
        }
      ]
    },
    {
      "name": "Holly Hop Drive_Border_0",
      "primitives": [
        {
          "attributes": {
            "NORMAL": 9,
            "POSITION": 8,
            "TEXCOORD_0": 10
          },
          "indices": 11,
          "material": 2,
          "mode": 4
        }
      ]
    },
    {
      "name": "Holly Hop Drive_Display_0",
      "primitives": [
        {
          "attributes": {
            "NORMAL": 13,
            "POSITION": 12,
            "TEXCOORD_0": 14
          },
          "indices": 15,
          "material": 3,
          "mode": 4
        }
      ]
    },
    {
      "name": "Holly Hop Drive_GreenButton_0",
      "primitives": [
        {
          "attributes": {
            "NORMAL": 17,
            "POSITION": 16,
            "TEXCOORD_0": 18
          },
          "indices": 19,
          "material": 4,
          "mode": 4
        }
      ]
    },
    {
      "name": "Holly Hop Drive_Stop_0",
      "primitives": [
        {
          "attributes": {
            "NORMAL": 21,
            "POSITION": 20,
            "TEXCOORD_0": 22
          },
          "indices": 23,
          "material": 5,
          "mode": 4
        }
      ]
    },
    {
      "name": "Holly Hop Drive_RedButton_0",
      "primitives": [
        {
          "attributes": {
            "NORMAL": 25,
            "POSITION": 24,
            "TEXCOORD_0": 26
          },
          "indices": 27,
          "material": 6,
          "mode": 4
        }
      ]
    },
    {
      "name": "Holly Hop Drive_Start_0",
      "primitives": [
        {
          "attributes": {
            "NORMAL": 29,
            "POSITION": 28,
            "TEXCOORD_0": 30
          },
          "indices": 31,
          "material": 7,
          "mode": 4
        }
      ]
    }
  ],
  "nodes": [
    {
      "children": [
        1
      ],
      "name": "RootNode (gltf orientation matrix)",
      "rotation": [
        -0.70710678118654746,
        -0,
        -0,
        0.70710678118654757
      ]
    },
    {
      "children": [
        2
      ],
      "matrix": [
        -0.00074006675276905298,
        -2.0964384091613059e-19,
        -1.1901180876267787e-19,
        0,
        2.0964384091613059e-19,
        -0.00074006675276905298,
        1.1901180876267787e-19,
        0,
        -1.1901180876267787e-19,
        1.1901180876267787e-19,
        0.00074006675276905298,
        0,
        4.2830295516813055e-14,
        11.091037750244141,
        -0.00052353984210640192,
        1
      ],
      "name": "RootNode (model correction matrix)"
    },
    {
      "children": [
        3
      ],
      "matrix": [
        1,
        0,
        0,
        0,
        0,
        0,
        1,
        0,
        0,
        -1,
        0,
        0,
        0,
        0,
        0,
        1
      ],
      "name": "fc0b135c0d21468480f2135dde60bf30.fbx"
    },
    {
      "children": [
        4
      ],
      "name": "RootNode"
    },
    {
      "children": [
        5,
        6,
        7,
        8,
        9,
        10,
        11,
        12
      ],
      "matrix": [
        12003.0107421875,
        0,
        0,
        0,
        0,
        0.33859161245091213,
        -12003.010737411854,
        0,
        0,
        12003.010737411854,
        0.33859161245091213,
        0,
        0,
        226.01504516601562,
        0,
        1
      ],
      "name": "Holly Hop Drive"
    },
    {
      "mesh": 0,
      "name": "Holly Hop Drive_Box_0"
    },
    {
      "mesh": 1,
      "name": "Holly Hop Drive_Console_0"
    },
    {
      "mesh": 2,
      "name": "Holly Hop Drive_Border_0"
    },
    {
      "mesh": 3,
      "name": "Holly Hop Drive_Display_0"
    },
    {
      "mesh": 4,
      "name": "Holly Hop Drive_GreenButton_0"
    },
    {
      "mesh": 5,
      "name": "Holly Hop Drive_Stop_0"
    },
    {
      "mesh": 6,
      "name": "Holly Hop Drive_RedButton_0"
    },
    {
      "mesh": 7,
      "name": "Holly Hop Drive_Start_0"
    }
  ],
  "samplers": [
    {
      "magFilter": 9729,
      "minFilter": 9987,
      "wrapS": 10497,
      "wrapT": 10497
    }
  ],
  "scene": 0,
  "scenes": [
    {
      "name": "OSG_Scene",
      "nodes": [
        0
      ]
    }
  ],
  "textures": [
    {
      "sampler": 0,
      "source": 0
    },
    {
      "sampler": 0,
      "source": 1
    },
    {
      "sampler": 0,
      "source": 2
    }
  ]
}

